# AST/ASF file generated using VICON BodyLanguage
# -----------------------------------------------
:version 1.10
:name VICON
:units
  mass 1.0
  length 0.45
  angle deg
:documentation
   .ast/.asf automatically generated from VICON data using
   VICON BodyBuilder and BodyLanguage model FoxedUp or BRILLIANT.MOD
:root
   order TX TY TZ RX RY RZ
   axis XYZ
   position 0 0 0  
   orientation 0 0 0 
:bonedata
  begin
     id 1 
     name lhipjoint
     direction 0.537252 -0.787203 0.302774 
     length 2.29576 
     axis 0 0 0  XYZ
  end
  begin
     id 2 
     name lfemur
     direction 0.34202 -0.939693 0  
     length 7.31114  
     axis 0 0 20  XYZ
    dof rx ry rz
    limits (-160.0 20.0)
           (-70.0 70.0)
           (-60.0 70.0)
  end
  begin
     id 3 
     name ltibia
     direction 0.34202 -0.939693 0   
     length 8.36008   
     axis 0 0 20   XYZ
    dof rx
    limits (-10.0 170.0)
  end
  begin
     id 4 
     name lfoot
     direction 0.0969116 -0.266263 0.959016   
     length 2.16704   
     axis -90 7.62852e-016 20   XYZ
    dof rx rz
    limits (-45.0 90.0)
           (-70.0 20.0)
  end
  begin
     id 5 
     name ltoes
     direction 1.53563e-011 -4.21779e-011 1   
     length 1.08338   
     axis -90 7.62852e-016 20   XYZ
    dof rx
    limits (-90.0 20.0)
  end
  begin
     id 6 
     name rhipjoint
     direction -0.588228 -0.754791 0.290308   
     length 2.39434  
     axis 0 0 0  XYZ 
  end
  begin
     id 7 
     name rfemur
     direction -0.34202 -0.939693 0   
     length 7.45207   
     axis 0 0 -20   XYZ
    dof rx ry rz
    limits (-160.0 20.0)
           (-70.0 70.0)
           (-70.0 60.0)
  end
  begin
     id 8 
     name rtibia
     direction -0.34202 -0.939693 0   
     length 8.03565   
     axis 0 0 -20   XYZ
    dof rx
    limits (-10.0 170.0)
 end
 begin
     id 9 
     name rfoot
     direction -0.107009 -0.294004 0.949795   
     length 2.11509  
     axis -90 -7.62852e-016 -20   XYZ
    dof rx rz
    limits (-45.0 90.0)
           (-20.0 70.0)
  end
  begin
     id 10 
     name rtoes
     direction -1.53533e-011 -4.22004e-011 1   
     length 1.05493   
     axis -90 -7.62852e-016 -20   XYZ
    dof rx
    limits (-90.0 20.0)
  end
  begin
     id 11 
     name lowerback
     direction -0.0115208 0.997969 -0.0626515   
     length 2.03153   
     axis 0 0 0   XYZ
    dof rx ry rz
    limits (-20.0 45.0)
           (-30.0 30.0)
           (-30.0 30.0)
  end
  begin
     id 12 
     name upperback
     direction -0.00423475 0.999974 -0.00583614   
     length 2.03619   
     axis 0 0 0   XYZ
    dof rx ry rz
    limits (-20.0 45.0)
           (-30.0 30.0)
           (-30.0 30.0)
  end
  begin
     id 13 
     name thorax
     direction 0.00289429 0.999728 0.0231573   
     length 2.03921   
     axis 0 0 0   XYZ
    dof rx ry rz
    limits (-20.0 45.0)
           (-30.0 30.0)
           (-30.0 30.0)
  end
  begin
     id 14 
     name lowerneck
     direction 0.0188995 0.987777 0.154721   
     length 1.78836   
     axis 0 0 0   XYZ
    dof rx ry rz
    limits (-20.0 45.0)
           (-30.0 30.0)
           (-30.0 30.0)
  end
  begin
     id 15 
     name upperneck
     direction -0.00612612 0.992995 -0.118   
     length 1.81789   
     axis 0 0 0   XYZ
    dof rx ry rz
    limits (-20.0 45.0)
           (-30.0 30.0)
           (-30.0 30.0)
  end
  begin
     id 16
     name head
     direction -0.00420226 0.998397 -0.0564482  
     length 1.82234  
     axis 0 0 0   XYZ
    dof rx ry rz
    limits (-20.0 45.0)
           (-30.0 30.0)
           (-30.0 30.0)
  end
  begin
     id 17 
     name lclavicle
     direction 0.916488 0.396539 0.0529676  
     length 3.51732  
     axis 0 0 0   XYZ
    dof ry rz
    limits (-20.0 10.0)
           (0.0 20.0)
  end
  begin
     id 18 
     name lhumerus
     direction 1 -4.4896e-011 8.36962e-028   
     length 5.45077   
     axis 180 -30 -90   XYZ
    dof rx ry rz
    limits (-60.0 90.0)
           (-90.0 90.0)
           (-90.0 90.0)
  end
  begin
     id 19
     name lradius
     direction 1 -4.48962e-011 3.01407e-027   
     length 3.05488   
     axis 180 -30 -90   XYZ
    dof rx
    limits (-10.0 170.0)
  end
  begin
     id 20
     name lwrist
     direction 1 -4.49002e-011 4.72961e-027   
     length 1.52744   
     axis -2.72261e-015 90 90   XYZ
    dof ry
    limits (-180.0 0.0)
 end
  begin
     id 21 
     name lhand
     direction 1 -4.4899e-011 9.45681e-027   
     length 0.638818   
     axis -6.0311e-015 90 90   XYZ
    dof rx rz
    limits (-90.0 90.0)
           (-45.0 45.0)
  end
  begin
     id 22 
     name lfingers
     direction 1 -4.48871e-011 1.88632e-026   
     length 0.515032   
     axis -1.20625e-014 90 90   XYZ
    dof rx
    limits (0.0 90.0)
  end
  begin
     id 23
     name lthumb
     direction 0.707107 -6.34964e-011 0.707107   
     length 0.739485   
     axis -90 45 6.32835e-014   XYZ
    dof rx rz
    limits (-45.0 45.0)
           (-45.0 45.0)
  end
  begin
     id 24 
     name rclavicle
     direction -0.949427 0.303202 0.0815894   
     length 3.76167  
     axis 0 0 0   XYZ 
    dof ry rz
    limits (-10.0 20.0)
           (-20.0 0.0)
  end
  begin
     id 25 
     name rhumerus
     direction -1 -4.48971e-011 -6.43969e-018  
     length 4.88702   
     axis 180 30 90   XYZ
    dof rx ry rz
    limits (-90.0 60.0)
           (-90.0 90.0)
           (-90.0 90.0)
  end
  begin
     id 26 
     name rradius
     direction -1 -4.48987e-011 5.46662e-027   
     length 3.22603   
     axis 180 30 90   XYZ
    dof rx
    limits (-10.0 170.0)
  end
  begin
     id 27 
     name rwrist
     direction -1 -4.48956e-011 4.72476e-027   
     length 1.61302   
     axis -2.72261e-015 -90 -90   XYZ
    dof ry
    limits (-180.0 0.0)
  end
  begin
     id 28
     name rhand
     direction -1 -4.4889e-011 9.43571e-027   
     length 0.716293   
     axis -6.0311e-015 -90 -90   XYZ
    dof rx rz
    limits (-90.0 90.0)
           (-45.0 45.0)
  end
  begin
     id 29
     name rfingers
     direction -1 -4.48887e-011 1.88701e-026   
     length 0.577494   
     axis -1.20625e-014 -90 -90   XYZ
    dof rx
    limits (0.0 90.0)
  end
  begin
     id 30
     name rthumb
     direction -0.707107 -6.34825e-011 0.707107   
     length 0.829169   
     axis -90 -45 -6.32835e-014   XYZ
    dof rx rz
    limits (-45.0 45.0)
           (-45.0 45.0)
  end
:hierarchy
  begin
    root lhipjoint rhipjoint lowerback
    lhipjoint lfemur
    lfemur ltibia
    ltibia lfoot
    lfoot ltoes
    rhipjoint rfemur
    rfemur rtibia
    rtibia rfoot
    rfoot rtoes
    lowerback upperback
    upperback thorax
    thorax lowerneck lclavicle rclavicle
    lowerneck upperneck
    upperneck head
    lclavicle lhumerus
    lhumerus lradius
    lradius lwrist
    lwrist lhand lthumb
    lhand lfingers
    rclavicle rhumerus
    rhumerus rradius
    rradius rwrist
    rwrist rhand rthumb
    rhand rfingers
  end

#!OML:ASF F:\VICON\USERDATA\INSTALL\rory3\rory3.ASF
:FULLY-SPECIFIED
:DEGREES
745
root 1.62674 18.5468 0.857494 169.401 88.5397 155.828
lowerback -9.34954 4.13 1.63133
upperback -3.62945 5.61196 -4.3017
thorax 2.03827 2.85612 -4.74631
lowerneck -3.99973 19.3968 15.1327
upperneck 17.7934 31.5073 -19.2016
head 12.0998 14.6075 -4.09789
rclavicle -9.93923e-015 3.57812e-014
rhumerus -43.4999 -0.893439 -87.1552
rradius 48.6919
rwrist -165.34
rhand -27.4624 -6.43094
rfingers 7.12502
rthumb -0.86672 -36.4089
lclavicle -9.93923e-015 3.57812e-014
lhumerus -73.6997 -60.6867 95.6716
lradius 101.413
lwrist 185.153
lhand -19.6239 -5.71362
lfingers 7.12502
lthumb 6.70285 24.1603
rfemur -8.93545 -12.2379 19.1891
rtibia -1.03368e-014
rfoot -2.31795 12.1392
rtoes -8.16501
lfemur -16.4304 7.10291 -17.5923
ltibia 15.7433
lfoot -12.4351 -2.07039
ltoes -28.0239
746
root 1.63075 18.5465 0.853413 167.165 88.5439 153.595
lowerback -9.38825 4.11739 1.5996
upperback -3.6311 5.59879 -4.30698
thorax 2.05416 2.85001 -4.73303
lowerneck -3.947 19.3794 15.1705
upperneck 17.7539 31.4823 -19.2379
head 12.0844 14.6024 -4.1259
rclavicle -2.32578e-014 3.97569e-015
rhumerus -43.4991 -0.916909 -87.1847
rradius 48.6459
rwrist -165.348
rhand -27.2186 -6.59772
rfingers 7.12502
rthumb -0.631204 -36.5765
lclavicle -2.32578e-014 3.97569e-015
lhumerus -73.7574 -60.6927 95.7366
lradius 101.359
lwrist 185.17
lhand -19.4466 -5.59292
lfingers 7.12502
lthumb 6.87403 24.2755
rfemur -8.90506 -12.2286 19.1119
rtibia -4.77083e-015
rfoot -2.3749 12.1781
rtoes -8.34093
lfemur -16.4082 7.18794 -17.6745
ltibia 15.7424
lfoot -12.448 -2.1104
ltoes -28.0182
747
root 1.63371 18.5459 0.849661 168.003 88.5433 154.422
lowerback -9.44626 4.10558 1.6424
upperback -3.62411 5.5782 -4.27961
thorax 2.09247 2.83985 -4.72662
lowerneck -3.88551 19.3665 15.1541
upperneck 17.6647 31.4626 -19.2973
head 12.0447 14.5988 -4.15615
rclavicle -1.58531e-014 2.46493e-014
rhumerus -43.5114 -0.839194 -87.2229
rradius 48.6629
rwrist -165.372
rhand -27.0642 -6.62021
rfingers 7.12502
rthumb -0.482065 -36.5994
lclavicle -1.58531e-014 2.46493e-014
lhumerus -73.7337 -60.6882 95.7696
lradius 101.311
lwrist 185.166
lhand -19.2986 -5.54498
lfingers 7.12502
lthumb 7.01694 24.3187
rfemur -8.90116 -12.2391 19.1161
rtibia -4.77083e-015
rfoot -2.40699 12.1873
rtoes -8.38115
lfemur -16.4079 7.13497 -17.6513
ltibia 15.7545
lfoot -12.466 -2.13318
ltoes -27.6847
748
root 1.6361 18.5457 0.844727 170.661 88.5531 157.058
lowerback -9.51303 4.11239 1.73608
upperback -3.61765 5.57724 -4.24564
thorax 2.14094 2.8394 -4.73878
lowerneck -3.96282 19.3499 15.1132
upperneck 17.7259 31.4253 -19.2344
head 12.0548 14.5756 -4.13252
rclavicle 5.86912e-014 9.54166e-015
rhumerus -43.5113 -0.895098 -87.2054
rradius 48.669
rwrist -165.419
rhand -27.1213 -6.58027
rfingers 7.12502
rthumb -0.537262 -36.5593
lclavicle 5.86912e-014 9.54166e-015
lhumerus -73.6408 -60.7085 95.7241
lradius 101.291
lwrist 185.168
lhand -19.3891 -5.55945
lfingers 7.12502
lthumb 6.92955 24.3071
rfemur -8.91447 -12.2468 19.171
rtibia 2.14687e-014
rfoot -2.38163 12.1748
rtoes -8.26704
lfemur -16.4586 7.1808 -17.6053
ltibia 15.7991
lfoot -12.4821 -2.17571
ltoes -27.7695
749
root 1.63722 18.5464 0.841195 171.965 88.5626 158.353
lowerback -9.54154 4.11012 1.78668
upperback -3.61783 5.56832 -4.21975
thorax 2.15757 2.83476 -4.73924
lowerneck -4.05006 19.3526 15.1123
upperneck 17.8339 31.4334 -19.1781
head 12.1021 14.5707 -4.10139
rclavicle -4.76089e-014 3.65764e-014
rhumerus -43.4819 -0.939242 -87.2066
rradius 48.6193
rwrist -165.501
rhand -27.2737 -6.36182
rfingers 7.12502
rthumb -0.684426 -36.3405
lclavicle -4.76089e-014 3.65764e-014
lhumerus -73.5945 -60.6941 95.7235
lradius 101.288
lwrist 185.073
lhand -19.4612 -5.62895
lfingers 7.12502
lthumb 6.85999 24.2399
rfemur -8.92269 -12.2438 19.2017
rtibia 1.35174e-014
rfoot -2.38892 12.1587
rtoes -8.26284
lfemur -16.5096 7.1982 -17.5844
ltibia 15.8625
lfoot -12.5457 -2.19557
ltoes -27.998
750
root 1.63791 18.547 0.838272 170.644 88.5968 157.03
lowerback -9.54093 4.12648 1.77405
upperback -3.62323 5.5908 -4.2117
thorax 2.15188 2.84585 -4.72109
lowerneck -4.13848 19.3546 15.0812
upperneck 17.9089 31.4294 -19.1159
head 12.128 14.561 -4.06879
rclavicle -4.95471e-014 -3.81667e-014
rhumerus -43.4923 -0.946838 -87.2058
rradius 48.5821
rwrist -165.523
rhand -27.3367 -6.42859
rfingers 7.12502
rthumb -0.74533 -36.407
lclavicle -4.95471e-014 -3.81667e-014
lhumerus -73.6369 -60.7379 95.7975
lradius 101.273
lwrist 185.1
lhand -19.2639 -5.57161
lfingers 7.12502
lthumb 7.0504 24.291
rfemur -8.92714 -12.2066 19.1679
rtibia -3.4191e-014
rfoot -2.4027 12.1461
rtoes -8.30637
lfemur -16.532 7.19123 -17.6148
ltibia 15.9415
lfoot -12.6246 -2.17284
ltoes -28.1916
751
root 1.63825 18.5461 0.835052 171.929 88.6131 158.317
lowerback -9.5432 4.13441 1.84389
upperback -3.62491 5.594 -4.19606
thorax 2.15651 2.8471 -4.74341
lowerneck -4.13522 19.3414 15.0665
upperneck 17.8935 31.4113 -19.1312
head 12.1187 14.5528 -4.07745
rclavicle -3.46879e-014 -1.98785e-014
rhumerus -43.5072 -0.99222 -87.2063
rradius 48.5545
rwrist -165.55
rhand -27.3394 -6.53821
rfingers 7.12502
rthumb -0.747911 -36.5166
lclavicle -3.46879e-014 -1.98785e-014
lhumerus -73.7183 -60.7775 95.8745
lradius 101.334
lwrist 185.142
lhand -19.1468 -5.65059
lfingers 7.12502
lthumb 7.1634 24.2082
rfemur -8.92548 -12.1962 19.1969
rtibia -2.70347e-014
rfoot -2.42073 12.1427
rtoes -8.37402
lfemur -16.5632 7.2387 -17.5982
ltibia 15.9943
lfoot -12.6282 -2.1891
ltoes -28.2535
752
root 1.64076 18.5451 0.829373 172.916 88.6208 159.309
lowerback -9.57965 4.11488 1.91703
upperback -3.61968 5.55983 -4.16706
thorax 2.18236 2.82989 -4.75578
lowerneck -4.04482 19.34 15.088
upperneck 17.7992 31.4196 -19.2197
head 12.09 14.564 -4.11662
rclavicle 7.02207e-014 -8.74653e-015
rhumerus -43.5209 -1.04079 -87.1799
rradius 48.6107
rwrist -165.468
rhand -27.4363 -6.67122
rfingers 7.12502
rthumb -0.841456 -36.6493
lclavicle 7.02207e-014 -8.74653e-015
lhumerus -73.7706 -60.6961 95.8951
lradius 101.389
lwrist 185.155
lhand -19.2066 -5.75085
lfingers 7.12502
lthumb 7.10577 24.1099
rfemur -8.92017 -12.1965 19.2008
rtibia 2.8625e-014
rfoot -2.39755 12.154
rtoes -8.13487
lfemur -16.5541 7.19615 -17.585
ltibia 16.0016
lfoot -12.6412 -2.1625
ltoes -28.1475
753
root 1.64212 18.5449 0.826106 169.841 88.618 156.242
lowerback -9.58623 4.08868 1.85534
upperback -3.62158 5.5311 -4.17076
thorax 2.17591 2.81571 -4.72839
lowerneck -4.05216 19.3699 15.1041
upperneck 17.8544 31.4504 -19.1434
head 12.1048 14.5796 -4.08442
rclavicle -1.71949e-014 2.06736e-014
rhumerus -43.5665 -1.06413 -87.2007
rradius 48.6569
rwrist -165.433
rhand -27.3717 -6.7014
rfingers 7.12502
rthumb -0.779042 -36.6797
lclavicle -1.71949e-014 2.06736e-014
lhumerus -73.8621 -60.6497 95.9357
lradius 101.408
lwrist 185.108
lhand -19.2519 -5.72359
lfingers 7.12502
lthumb 7.06203 24.1386
rfemur -8.91408 -12.1928 19.1055
rtibia 6.36111e-015
rfoot -2.3852 12.1539
rtoes -8.20204
lfemur -16.5105 7.15382 -17.6713
ltibia 15.9594
lfoot -12.6083 -2.10762
ltoes -28.2833
